<svg id="Layer_1" data-name="Layer 1" xmlns="http://www.w3.org/2000/svg" xmlns:xlink="http://www.w3.org/1999/xlink" viewBox="0 0 500 500"><defs><style>.cls-1{fill:url(#linear-gradient);}.cls-2{fill:url(#linear-gradient-2);}.cls-3{fill:url(#linear-gradient-3);}.cls-4{fill:url(#linear-gradient-4);}</style><linearGradient id="linear-gradient" x1="-9.448" y1="254.136" x2="466.57" y2="254.136" gradientUnits="userSpaceOnUse"><stop offset="0.112" stop-color="#94ff00"/><stop offset="0.299" stop-color="#6eff41"/><stop offset="0.606" stop-color="#34ffa6"/><stop offset="0.82" stop-color="#0effe6"/><stop offset="0.92" stop-color="aqua"/></linearGradient><linearGradient id="linear-gradient-2" x1="-9.448" y1="214.745" x2="466.57" y2="214.745" xlink:href="#linear-gradient"/><linearGradient id="linear-gradient-3" x1="-9.448" y1="408.552" x2="466.57" y2="408.552" xlink:href="#linear-gradient"/><linearGradient id="linear-gradient-4" x1="-9.448" y1="204.003" x2="466.57" y2="204.003" xlink:href="#linear-gradient"/></defs><path class="cls-1" d="M276.955,456.275c-81.995-31.557-118.07-77.894-126.069-102.889-9.548-29.8-15.5-32.121-40.56-41.7-3.911-1.5-8.251-3.168-13.095-5.12C63.616,292.983-5.91,245.919,6.456,194.538c5.539-24.8,26.133-50,27.006-51.061a3.883,3.883,0,0,1,6.306,4.5c-.66,1.1-15.94,27.978,27.347,61.934q6.648,5.216,12.805,9.989c38.948,30.323,64.685,50.359,83.732,89.078,19.933,40.528,43.983,49.787,58.355,55.32,7,2.695,8.788,4.719,11.347,8.061,2.78,3.626,7.424,9.694,29.856,23.824,35.934,22.638,75.837,37.513,106.732,39.8a4.25,4.25,0,0,1,.554.08c.243.058,24.669,5.349,40.255-.176,15.342-5.445,23.139-4.649,38.679-3.046,2.473.25,5.154.531,8.12.808,22.026,2.056,23.331-2.927,23.889-5.051a3.881,3.881,0,0,1,4.74-2.772,3.667,3.667,0,0,1,.876.352c-3.082-19.873-63.424-85.253-84.491-102.065-12.724-10.148-19.794-6.782-25.462-4.087-2.672,1.269-5.188,2.469-7.923,1.789-2.873-.728-7.538-4-16.98-10.775s-21.2-15.222-32.663-21.508c-21.662-11.882-42.331-48.942-37.564-80.747,3.074-20.482-6.073-27.968-21.217-40.39-4.5-3.686-9.611-7.871-14.761-12.806-11.734-11.24-8.618-27.708-5.6-43.638,3.293-17.4,6.7-35.4-6.489-49.844-15.584-17.079-44.587-3.822-67.884,6.835-15.108,6.916-27.035,12.379-35.421,10.613-13.063-2.778-17.894-17.471-18.041-29.234-.152-11.8,4.07-24.741,13.83-27.056,16.092-3.809,40.259,25.75,44.941,31.717a3.835,3.835,0,0,1,.816,2.672c23.631-10.433,50.4-19.532,67.5-.784,15.8,17.319,11.855,38.153,8.378,56.52-2.869,15.168-5.344,28.266,3.349,36.593,4.935,4.726,9.7,8.638,14.305,12.414,15.477,12.686,27.7,22.7,23.974,47.539-4.241,28.282,14.6,62.349,33.626,72.787,11.876,6.52,23.839,15.11,33.454,22.01,5.911,4.244,12.6,9.09,14.333,9.555.2-.082,1.646-.769,2.7-1.271,5.983-2.85,17.116-8.147,33.639,5.035,18.09,14.421,86.956,85.959,87.52,108.836.263,10.435.74,29.17-15.061,42.694-19.969,17.106-60.235,20.3-119.689,9.517C328.3,473.316,300.7,465.416,276.955,456.275Zm-161.432-150.9c23.938,9.215,32.412,13.372,42.756,45.649,9.823,30.687,64.968,95.349,203.276,120.444,57.048,10.346,95.151,7.731,113.259-7.776,10.079-8.628,12.1-20.019,12.389-29.071-4.058,6.3-13.538,8.336-30.377,6.757-2.992-.282-5.7-.561-8.193-.81-15.274-1.58-21.594-2.231-35.279,2.629-16.934,6.012-41.2,1.161-44.258.511-32.062-2.441-73.167-17.737-110.024-40.955-23.606-14.871-28.786-21.631-31.881-25.671-1.947-2.546-2.676-3.5-7.973-5.538-15.431-5.94-41.257-15.882-62.533-59.133-18.259-37.131-42.078-55.667-81.532-86.382q-6.174-4.8-12.829-10.01c-26.234-20.586-32.981-39.4-33.45-52.655-5.765,9.114-12.243,21.227-14.859,32.928-10.583,44,50.87,88.835,86.121,103.08,4.8,1.935,9.108,3.577,12.968,5.072Zm18.06-273.829a9.413,9.413,0,0,0-5.4-.728c-4.537,1.075-7.988,9.6-7.863,19.412.118,9.595,3.856,20.033,11.883,21.728,5.881,1.242,17.882-4.255,30.587-10.068,1.035-.474,2.075-.946,3.126-1.431a3.616,3.616,0,0,1-.687-.679C156.73,48.965,142.888,35.126,133.583,31.544Z"/><path class="cls-2" d="M356.217,410.922q-3.582-1.38-7.562-3.248c-28.917-13.546-40.176-31.606-49.227-46.11-8.851-14.194-15.833-25.412-36.265-28.475a291.667,291.667,0,0,0-34.046-2.744c-15.156-.56-25.166-.926-30.489-7.321-3.125-3.75-4.069-8.983-2.978-16.467,1.443-9.889,11.185-21.727,22.476-35.435,14.113-17.135,30.11-36.555,27.473-51.115-1.047-5.794-5.045-10.628-12.217-14.764-46.537-26.871-62.166-62.646-55.554-78.151,1.834-4.3,5.491-7.405,8.434-9.894a34.8,34.8,0,0,0,3.158-2.913c-1.55-1.263-7.107-3.976-26.719-8.5-25.662-5.937-52.8-16.254-66.567-26.078-8.739,18.966-30.054,47.731-42.2,58.872-5.793,5.306-7.81,7.782-8.478,8.945a61.01,61.01,0,0,0,8.838,2.692A172.752,172.752,0,0,1,82.8,159.8c4.808,2.137,9.886,4.193,15.268,6.364,32.482,13.114,72.917,29.437,79.166,80.015a3.876,3.876,0,1,1-7.7.943c-5.7-46.032-42.188-60.766-74.377-73.759-5.448-2.2-10.586-4.276-15.521-6.472a165.481,165.481,0,0,0-27.308-9.157c-8.46-2.206-13.564-3.536-14.717-8.17-1.133-4.536,2.67-9.01,11.076-16.707,16.032-14.7,34.864-44.038,41.392-58.379-1.935-2.168-3.034-4.257-3.12-6.227-.049-1.162.19-5.091,5.385-6.77,3.56-1.157,5.96.377,7.026,2.205,1.04,1.787.817,4.8-.352,8.651,9.021,6.8,31.731,18.1,65.422,25.886,26.3,6.058,31.7,9.611,32.863,14.413,1.082,4.437-2.535,7.511-6.024,10.477-2.444,2.072-5.206,4.414-6.316,7.028-3.846,9.014,5.739,41.5,52.294,68.375,9.14,5.28,14.515,12.045,15.978,20.105,3.273,18.1-13.937,39-29.122,57.444-10.113,12.274-19.662,23.871-20.792,31.616-.736,5.075-.326,8.469,1.266,10.378,3.109,3.727,12.21,4.06,24.81,4.525a299.605,299.605,0,0,1,34.911,2.832c23.95,3.586,32.575,17.4,41.7,32.043,8.951,14.345,19.094,30.617,45.933,43.188,13.349,6.243,22.627,7.954,27.587,5.044,5.945-3.5,6.716-14.438,7.534-26.025.794-11.2,1.612-22.781,7.119-31.218a12.529,12.529,0,0,1,9.228-5.864c13.186-1.509,31.816,16.336,48.251,32.072,4.781,4.582,10.383,9.949,14.173,12.963-7.206-16.75-48.886-60.895-76-87.256a3.88,3.88,0,0,1-1.177-2.751c-.059-7.077-4.268-11.2-9.152-15.981-4.92-4.82-10.5-10.284-11.7-19.31-.826-6.207-5.148-11.071-10.15-16.7-6.3-7.079-13.441-15.107-14.466-27.612-.8-9.729-6.156-16.911-11.827-24.516-5.545-7.452-11.281-15.149-13.055-25.644-.859-5.037-1.752-9.517-2.591-13.762-2.5-12.542-4.655-23.378-4.044-40.147A170.994,170.994,0,0,1,314.1,93.687c2.737-17.3,5.564-35.171-2.712-53.825-10.883-24.479-70.428-18.13-93.431-11.341-20.1,5.918-16.1,44.354-16.061,44.743a3.879,3.879,0,1,1-7.712.847c-.2-1.849-4.685-45.3,21.581-53.04,22.608-6.658,88.954-15.33,102.715,15.648,9.215,20.738,6.064,40.637,3.287,58.177a166.546,166.546,0,0,0-2.331,19.323c-.575,15.862,1.4,25.791,3.9,38.357.856,4.3,1.764,8.854,2.631,13.979,1.461,8.644,6.4,15.279,11.63,22.3,6.072,8.151,12.349,16.57,13.328,28.521.824,9.912,6.511,16.311,12.534,23.088,5.36,6.033,10.912,12.267,12.048,20.839.844,6.373,4.826,10.267,9.432,14.782,5.047,4.941,10.731,10.507,11.421,19.791,15.41,15.044,78.054,77.278,78.333,95.309.057,4-2.033,5.514-3.286,6.063-4.818,2.1-10.214-2.724-25.107-16.988-12.918-12.365-32.435-31.088-41.994-29.965a4.737,4.737,0,0,0-3.619,2.4c-4.406,6.749-5.154,17.3-5.872,27.514-.971,13.688-1.883,26.61-11.352,32.175C377.2,416.06,368.424,415.621,356.217,410.922Z"/><path class="cls-3" d="M266.317,430.652c-4.379-1.686-7.827-3.521-10.232-5.684-3.173-2.848-6.713-6.715-10.464-10.8-9.209-10.076-20.7-22.642-32.534-26.259a105.7,105.7,0,0,0-16.177-3.1c-14.447-2.021-30.816-4.329-40.983-19.659a3.884,3.884,0,0,1,6.473-4.293c8.236,12.423,21.525,14.289,35.6,16.27a114.541,114.541,0,0,1,17.383,3.365c13.852,4.319,26.127,17.674,35.968,28.439,3.619,3.948,7.035,7.683,9.917,10.266,5.329,4.774,21.124,8.449,39.424,12.684,15.841,3.673,33.792,7.837,52.553,14.141,39.3,13.2,57.553-9.316,57.727-9.539a3.884,3.884,0,1,1,6.11,4.8c-.876,1.108-21.873,27.024-66.307,12.095-18.407-6.174-36.167-10.295-51.837-13.93C285.411,436.306,274.317,433.732,266.317,430.652Z"/><path class="cls-4" d="M361.046,330.329a3.726,3.726,0,0,1-1.159-.7,3.877,3.877,0,0,1-.974-4.525c3.167-6.978,6.4-14.479,9.221-21.431-6.735-.02-13.757.061-19.327.127-19.007.216-26.451.2-29.2-.855a4.632,4.632,0,0,1-2.843-3.2c-.83-3.132,1.056-7.878,12.551-22.958-15.125-1.057-28.081-1.979-29.332-2.073a3.881,3.881,0,0,1-2.36-6.719c7.5-6.949,15.281-14.479,22.268-21.553-21.19-.039-36.129-.643-40.874-3.359a5.77,5.77,0,0,1-2.953-4.63c-.407-5.346,6.486-12.587,21.158-24.794-14.817-3.09-24.325-7.54-24.288-15.608.03-6.723,6.83-13.973,15.569-21.607-1.531-.351-3.018-.692-4.443-1.024-17.351-3.988-32.339-7.426-38.554-10.713a6.628,6.628,0,0,1-3.89-6.112c.16-4.713,5.294-10.43,25.543-21.155-17.726-3.91-29.889-8.248-28.293-17.008,1.171-6.436,13.244-12.419,28.112-17.413C249.962,96.763,231.255,90.1,216.529,84.96a3.879,3.879,0,1,1,2.557-7.325c26.484,9.246,45.966,16.243,60.292,21.578,13.991-3.924,28.482-6.977,37.825-8.781a3.877,3.877,0,1,1,1.477,7.613c-9.33,1.815-18.373,3.837-26.727,5.952,27.13,10.523,27.292,12.413,27.478,14.371a4.225,4.225,0,0,1-2.044,3.894c-.734.42-2.549,1.224-6.947,3.179-7.327,3.258-13.787,6.21-19.482,8.888,13.536,2.723,24.767,5.344,29.675,9.244a7.887,7.887,0,0,1,3.162,6.249c.07,6.377-6.905,12.956-18.489,22.643,20.64,5.113,29.831,8.558,31.559,13.524a5.559,5.559,0,0,1-.994,5.4c-2.494,3.112-8.965,8.332-19.3,16.58-.342.27-.69.551-1.049.839,4.64.637,8.821,1.137,11.834,1.5,13.3,1.576,19.3,2.337,21.937,4.207a5.015,5.015,0,0,1,2.116,3.835c.251,3.689-5.168,11.217-13.256,20.285,23.758-.11,24.525.185,26.069,2.629a4.142,4.142,0,0,1,.229,3.891c-.484,1.011-1.806,2.654-8.339,10.6-2.783,3.387-7.1,8.633-11.664,14.325,16.988,1.184,32.961,2.278,35.394,2.377a4.551,4.551,0,0,1,3.765,2.209c.743,1.209,2.344,3.813-4.1,21.447,11.5.408,15.255,1.5,16.946,3.72a4.549,4.549,0,0,1,.762,4.057c-1.789,6.113-21.266,18.987-32.716,26.125A3.887,3.887,0,0,1,361.046,330.329Zm15.5-26.541c-1.47,3.666-3.2,7.824-5.233,12.515a163.9,163.9,0,0,0,15.968-11.935C384.611,304.07,380.832,303.891,376.551,303.788Zm-37.94-26.346c-5.746,7.371-11.018,14.509-13.215,18.568,5.05.23,14.978.119,23.318.023,9.146-.11,16.518-.146,22.478-.091a123.725,123.725,0,0,0,5.268-15.915C369.72,279.608,354.04,278.525,338.611,277.442Zm-7.7-31.014c-6.592,6.87-14.106,14.2-21.5,21.174,6.5.456,15.861,1.126,25.655,1.81,4.107-5.2,9.071-11.327,15.052-18.6,1.233-1.487,2.471-3,3.587-4.365-5.011-.113-12.408-.078-19.23-.042C333.271,246.411,332.081,246.415,330.91,246.428Zm-23.654-30.966c-9.627,7.839-20.422,17.059-22.942,21.419,6.467,1.708,27.624,1.839,43.111,1.79,7.628-8.045,13.45-14.8,15.49-18.368-3.494-.752-10.563-1.59-16.478-2.294C319.622,217.2,313.164,216.378,307.256,215.462Zm-9.373-36.814c-8.249,6.936-17.167,15.006-17.184,19.435-.021,3.973,11.99,7,24.4,9.13q3.143-2.53,6.622-5.312c6.99-5.579,13.656-10.894,16.782-13.962C324.113,185.251,310.808,181.741,297.883,178.648Zm-48.073-20.5c6.13,2.854,21.313,6.33,36,9.707q5.362,1.23,10.084,2.338c.462-.387.945-.783,1.414-1.173,6.746-5.591,19.311-16,18.731-19.164-4.458-3.551-19.744-6.576-33.236-9.234l-3.478-.684C258.147,150.447,251.531,155.634,249.81,158.151Zm29.239-50.668c-18.694,5.411-31.668,10.9-32.551,14.355,1.293,3.44,18.776,7.344,31.741,9.972,7.885-3.868,17.392-8.278,28.813-13.358C300.991,115.829,290.874,111.906,279.049,107.483Z"/></svg>